<?xml version="1.0" encoding="UTF-8" standalone="no"?>
<svg
   xmlns:dc="http://purl.org/dc/elements/1.1/"
   xmlns:cc="http://creativecommons.org/ns#"
   xmlns:rdf="http://www.w3.org/1999/02/22-rdf-syntax-ns#"
   xmlns:svg="http://www.w3.org/2000/svg"
   xmlns="http://www.w3.org/2000/svg"
   xmlns:sodipodi="http://sodipodi.sourceforge.net/DTD/sodipodi-0.dtd"
   xmlns:inkscape="http://www.inkscape.org/namespaces/inkscape"
   version="1.1"
   id="Layer_1"
   x="0px"
   y="0px"
   viewBox="0 0 127 48.999998"
   xml:space="preserve"
   sodipodi:docname="feelya-logo2.svg"
   width="127"
   height="49"
   inkscape:version="1.0 (4035a4fb49, 2020-05-01)"><metadata
   id="metadata48"><rdf:RDF><cc:Work
       rdf:about=""><dc:format>image/svg+xml</dc:format><dc:type
         rdf:resource="http://purl.org/dc/dcmitype/StillImage" /><dc:title></dc:title></cc:Work></rdf:RDF></metadata><defs
   id="defs46">
	
	
	
	
	
	
	
	
	
	
</defs><sodipodi:namedview
   inkscape:document-rotation="0"
   pagecolor="#ffffff"
   bordercolor="#666666"
   borderopacity="1"
   objecttolerance="10"
   gridtolerance="10"
   guidetolerance="10"
   inkscape:pageopacity="0"
   inkscape:pageshadow="2"
   inkscape:window-width="1920"
   inkscape:window-height="1001"
   id="namedview44"
   showgrid="true"
   inkscape:zoom="6.7755906"
   inkscape:cx="75.948082"
   inkscape:cy="20.633414"
   inkscape:window-x="-9"
   inkscape:window-y="-9"
   inkscape:window-maximized="1"
   inkscape:current-layer="Layer_1"><inkscape:grid
     type="xygrid"
     id="grid50" /></sodipodi:namedview>
<style
   type="text/css"
   id="style30">
	.st0{fill-rule:evenodd;clip-rule:evenodd;fill:#54C1F0;}
	.st1{fill:#54C1F0;}
</style>
<path
   style="stroke-width:1.08854"
   d="m 27.840992,29.548731 c 0,0 10.862946,-4.494081 7.48805,-12.808132 C 34.063456,14.044151 30.794026,10.785942 25.415286,12.808278 24.677027,12.246518 15.185133,1.7977797 0.94729135,20.448216 0.73636036,20.897625 -0.00189809,21.459385 0.10356741,20.11116 0.2090329,18.762936 2.7402047,-0.89866903 23.20051,1.0113155 c 6.222464,0.4494081 19.827513,7.0781778 16.241686,25.0545025 -0.527327,2.696449 -2.636637,11.347555 -5.37874,13.369891 -0.632793,0.337056 -2.003844,1.685281 -3.480361,-1.572928 -1.160121,-2.696449 -2.10931,-5.50525 -2.742103,-8.31405"
   class="st0"
   id="Path_582" /><path
   style="stroke-width:1.08854"
   d="m 12.126634,10.561238 c 0,0 -10.8629462,4.494081 -7.4880504,12.808131 1.2655859,2.696449 4.5350162,5.954658 10.0192214,3.932321 0.738259,0.56176 10.230153,11.010499 24.467995,-7.639938 0.210931,-0.449408 0.949189,-1.12352 0.843724,0.337056 C 39.864058,21.459385 37.227421,40.896286 16.872581,38.873949 10.544651,38.424541 -2.9549319,31.908123 0.63089487,13.931799 1.0527568,11.23535 3.2675322,2.5842439 6.009635,0.56190734 6.5369625,0.22485125 8.0134794,-1.1233731 9.4899963,2.1348357 10.544651,4.8312844 11.493841,7.6400852 12.126634,10.561238"
   class="st0"
   id="Path_583" /><path
   style="stroke-width:1.08854"
   d="m 29.633905,13.819447 c 3.0585,0.112352 5.378741,2.921152 5.16781,6.179361 -0.105466,3.258209 -2.742103,5.729954 -5.800603,5.50525 -3.058499,-0.224704 -5.37874,-2.921153 -5.167809,-6.179362 0,0 0,0 0,0 v 0 c 0.210931,-3.145857 2.742103,-5.617601 5.800602,-5.505249"
   class="st0"
   id="Path_584" /><path
   style="stroke-width:1.08854"
   d="m 10.966513,13.819447 c 3.058499,0.112352 5.37874,2.921152 5.167809,6.179361 -0.105465,3.258209 -2.742102,5.729954 -5.800602,5.50525 -3.0584991,-0.224704 -5.3787399,-2.921153 -5.1678089,-6.179362 0,0 0,0 0,0 v 0 c 0.210931,-3.145857 2.7421028,-5.617601 5.8006019,-5.505249"
   class="st0"
   id="Path_585" /><path
   d="m 48.8,17.4 v 11.9 c 0,1 0.8,1.9 1.9,1.9 h 0.2 c 1.1,0 2,-0.8 2,-1.9 v -12 h 2.5 c 0.9,0.1 1.7,-0.6 1.8,-1.5 0.1,-0.9 -0.6,-1.7 -1.5,-1.8 -0.1,0 -0.2,0 -0.3,0 h -2.5 v -2.3 c 0,-1.6 1,-2.8 3.1,-2.8 1,0 1.8,-0.8 1.8,-1.7 C 57.8,6.3 57,5.4 56,5.4 51.2,5.4 48.9,8.5 48.9,12 v 2 H 48 c -0.9,0.1 -1.6,0.9 -1.5,1.8 0.1,0.8 0.7,1.5 1.5,1.5 l 0.8,0.1"
   class="st1"
   id="Path_586" /><path
   d="m 65.2,16.9 c 1.8,-0.1 3.4,1.3 3.5,3.2 0,0 0,0 0,0 0,0.1 0,0.3 0,0.4 h -7.4 c 0,-2 1.6,-3.6 3.7,-3.6 0,0 0,0 0,0 h 0.2 m -8,5.5 c 0,6.2 3.2,9 8.4,9 2.2,0.1 4.3,-0.6 6,-2.1 0.4,-0.3 0.6,-0.9 0.6,-1.4 0,-1 -0.8,-1.7 -1.8,-1.7 0,0 0,0 0,0 v 0 c -0.4,0 -0.9,0.1 -1.2,0.4 -1.1,0.8 -2.4,1.2 -3.7,1.2 -2.5,0 -4.4,-1.2 -4.4,-3.9 h 9.2 c 2.3,0 2.3,-1.6 2.3,-3 0,-2.6 -1.1,-7.4 -7.5,-7.4 -4.9,0 -7.9,3.2 -7.9,8.9 z"
   class="st1"
   id="Path_587" /><path
   d="m 81.3,16.9 c 1.8,-0.1 3.4,1.3 3.5,3.2 0,0.1 0,0.3 0,0.4 h -7.4 c 0,-2 1.6,-3.6 3.6,-3.6 h 0.3 m -8,5.5 c 0,6.2 3.2,9 8.4,9 2.2,0.1 4.3,-0.6 6,-2.1 0.4,-0.3 0.6,-0.9 0.6,-1.4 0,-1 -0.8,-1.7 -1.8,-1.8 v 0 c -0.4,0 -0.8,0.1 -1.2,0.4 -1.1,0.8 -2.4,1.2 -3.7,1.2 -2.5,0 -4.4,-1.2 -4.4,-3.9 h 9.2 c 2.3,0 2.3,-1.6 2.3,-3 0,-2.6 -1.1,-7.4 -7.5,-7.4 -4.9,0 -7.9,3.3 -7.9,9 z"
   class="st1"
   id="Path_588" /><path
   d="m 92.3,4.4 c -1.1,0 -2,0.9 -2,2 v 0 20 c 0,3.1 1.8,4.8 4.7,4.8 1,0 1.9,-0.8 1.9,-1.8 0,-1 -0.8,-1.9 -1.8,-1.9 H 95 c -0.4,0 -0.7,-0.3 -0.7,-0.7 V 6.4 c 0.1,-1.1 -0.8,-2 -2,-2 v 0"
   class="st1"
   id="Path_589" /><path
   d="m 97.3,34.7 c -1,0 -1.9,0.9 -1.8,1.9 0,0.9 0.7,1.7 1.7,1.8 h 0.1 c 3.7,0 6.1,-2.6 7.7,-6.3 l 6.9,-15.6 c 0.1,-0.2 0.2,-0.5 0.1,-0.8 0,-1.1 -0.9,-2 -2,-2 v 0 c -0.8,0 -1.6,0.5 -1.9,1.3 L 104,25.4 100,15 c -0.3,-0.8 -1,-1.3 -1.9,-1.3 -1.1,0 -2,0.9 -2,2 v 0 c 0,0.3 0.1,0.5 0.1,0.8 l 5.8,13.2 c -1.2,3.1 -2.3,5 -4.7,5"
   class="st1"
   id="Path_590" /><path
   d="m 119.2,28 c -2.1,0 -3.1,-0.9 -3.1,-2.3 0,-1.4 0.9,-2.1 2.5,-2.1 h 4.4 v 1 c -0.1,1.9 -1.7,3.5 -3.7,3.4 0,0 -0.1,0 -0.1,0 m 0.4,-11 c 2.2,0 3.4,1.1 3.4,2.8 v 0.7 h -4.9 c -3.3,0 -6.1,1.8 -6.1,5.3 0,3.5 2.4,5.6 6.1,5.6 2.2,0 3.9,-0.6 4.9,-2.2 0,1.1 0.9,2 2,2 1.1,0 2,-0.9 2,-2 v -9.5 c 0,-3.9 -2.8,-6.2 -7.4,-6.2 -2.3,-0.1 -4.6,0.7 -6.2,2.4 -0.3,0.3 -0.5,0.8 -0.5,1.2 0,1 0.8,1.8 1.8,1.8 0.4,0 0.8,-0.1 1.1,-0.4 1.1,-0.9 2.4,-1.4 3.8,-1.5 z"
   class="st1"
   id="Path_591" />
</svg>
