<svg xmlns="http://www.w3.org/2000/svg" width="96" height="32" viewBox="0 0 96 32">
    <g fill="none" fill-rule="evenodd">
        <path fill="#212121" d="M4.12 12.162H2.06v6.894H0V3.75h4.612c1.6 0 2.98.315 3.935 1.061.873.682 1.385 1.706 1.385 3.155 0 1.137-.412 2.073-1.1 2.764-.633.637-1.5 1.062-2.49 1.242l4.35 7.083h-2.49L4.12 12.162zm.325-6.56H2.06v4.71h2.324c1.142 0 2.032-.203 2.627-.608.562-.382.863-.962.863-1.737 0-.863-.323-1.448-.889-1.815-.6-.387-1.476-.55-2.539-.55zm10.062 5.48c-.51.475-.857 1.112-.977 1.791h6.026c-.085-.75-.368-1.396-.835-1.857-.49-.483-1.192-.77-2.091-.77-.842 0-1.577.326-2.123.835zm5.7-1.19c.904.935 1.367 2.258 1.367 3.719l-.004.316c-.002.125-.008.252-.018.372l-.02.258h-8.043c.082.799.432 1.515.964 2.045.583.579 1.388.936 2.301.936.626 0 1.186-.161 1.655-.414.543-.293.966-.709 1.233-1.14l.164-.264 1.527 1.197-.173.22c-.6.763-1.28 1.306-2.022 1.657-.742.352-1.543.512-2.384.512-1.524 0-2.853-.578-3.803-1.544-.949-.965-1.517-2.315-1.517-3.86 0-1.535.562-2.88 1.487-3.844.935-.974 2.24-1.559 3.709-1.559 1.545 0 2.745.53 3.578 1.392zm6.241-1.143h2.291v1.747h-2.29v8.56h-1.976v-8.56h-2.041V8.749h2.04V6.363c0-1.197.309-2.173.933-2.848.603-.653 1.488-1.014 2.659-1.014.195 0 .427.013.662.042.2.024.401.063.583.116l.245.072-.359 1.796-.291-.083c-.269-.076-.557-.134-.903-.134-.647 0-1.03.22-1.247.582-.237.395-.306.974-.306 1.638v2.219zm6.117 2.332c-.51.476-.858 1.113-.978 1.792h6.027c-.086-.75-.369-1.396-.835-1.857-.49-.483-1.192-.77-2.092-.77-.842 0-1.576.326-2.122.835zm5.7-1.19c.904.936 1.367 2.259 1.367 3.72l-.004.316c-.003.125-.009.252-.018.372l-.021.258h-8.042c.082.799.431 1.515.964 2.045.583.579 1.387.936 2.301.936.626 0 1.186-.161 1.654-.414.544-.293.967-.709 1.233-1.14l.164-.264 1.527 1.197-.172.22c-.6.763-1.28 1.306-2.022 1.657-.743.352-1.543.512-2.384.512-1.524 0-2.853-.578-3.803-1.544-.95-.965-1.517-2.315-1.517-3.86 0-1.535.562-2.88 1.486-3.844.936-.974 2.24-1.559 3.71-1.559 1.545 0 2.744.53 3.577 1.392zm3.849 8.885v-7.602c0-.307-.007-.746-.023-1.166-.013-.334-.032-.672-.058-.954l-.029-.305h1.918l.02.258c.02.245.04.548.056.851.258-.31.57-.581.92-.796.58-.355 1.266-.563 1.995-.563.18 0 .349.006.52.024.17.017.333.046.493.092l.234.066-.269 1.917-.325-.121c-.064-.024-.205-.05-.376-.072-.167-.02-.356-.034-.527-.034-.721 0-1.404.277-1.88.891-.425.55-.694 1.374-.694 2.515v5.279h-1.975v-.28z"/>
        <path fill="#169FEB" d="M57.88 18.831h-1.796V4.651h2.24v5.764h6.359V4.651h2.24v20.496l3.266-3.981h21.454c.577 0 1.103-.237 1.484-.618.38-.38.617-.906.617-1.483V4.16c0-.577-.236-1.103-.617-1.484-.38-.38-.907-.617-1.484-.617H54.219c-.577 0-1.103.236-1.484.617-.38.38-.617.907-.617 1.484v14.905c0 .577.237 1.103.617 1.483.38.381.907.618 1.484.618h7.674v2.058H54.22c-1.144 0-2.185-.468-2.938-1.22-.754-.754-1.222-1.795-1.222-2.939V4.16c0-1.145.468-2.186 1.222-2.939C52.034.468 53.075 0 54.219 0h37.424c1.144 0 2.185.468 2.939 1.221.752.753 1.22 1.794 1.22 2.939v14.905c0 1.144-.468 2.185-1.22 2.938-.754.753-1.795 1.221-2.939 1.221h-20.49l-6.47 7.885V12.543h-6.358v6.288h-.445zm20.044-1.334c.011.296.029.599.053.848l.045.486h-2.117l-.058-.778c-.192.17-.405.322-.633.452-.604.348-1.317.551-2.015.551-1.219 0-2.15-.395-2.79-1.09-.664-.72-.996-1.747-.996-2.977V9.157h2.166v5.307c0 .837.115 1.525.423 1.98.282.416.761.654 1.516.654.593 0 1.18-.258 1.596-.794.38-.49.626-1.216.626-2.197v-4.95h2.165v7.297c0 .287.005.683.019 1.043zm5.488 1.046c-.288-.148-.562-.327-.814-.538v.826h-2.165V3.751h2.165v6.248c.249-.211.52-.393.804-.542.659-.347 1.395-.525 2.112-.525 1.47 0 2.7.54 3.572 1.427.901.916 1.416 2.2 1.416 3.635 0 1.436-.514 2.72-1.416 3.636-.872.887-2.101 1.426-3.572 1.426-.714 0-1.446-.176-2.102-.513zm4.044-2.288c.525-.558.805-1.362.805-2.26 0-.902-.28-1.711-.808-2.274-.48-.514-1.18-.831-2.07-.831-.852 0-1.58.328-2.094.868-.53.555-.842 1.34-.842 2.236 0 .894.312 1.674.837 2.223.515.538 1.245.862 2.099.862.891 0 1.591-.313 2.073-.824z"/>
    </g>
</svg>
