<svg id="Layer_1" data-name="Layer 1" xmlns="http://www.w3.org/2000/svg" viewBox="0 0 246 82"><defs><style>.cls-1{fill:#fff;}.cls-2{fill:#a61e22;}.cls-3{fill:none;}</style></defs><title>TFsource-logo</title><path class="cls-1" d="M230.81,55.54h7.74V43.06h-7.74V40.17h8.34V27.93H216.46v4.38l-1-1.56c-2.37-3.61-7.42-4.07-11.56-4.07H200.5c-5.93,0-9.66,2.39-11.08,7.12l-.52,1.72-.55-1.71c-1.5-4.69-5.81-6.69-14.4-6.69h-7.89a5.92,5.92,0,0,0-4.93,2.62l-1,1.52V27.93H131.92v5.65l-1-1.84c-2.87-5.06-9.74-5.06-13-5.06-3.58,0-11.94,0-13.93,7.24l-.6,2.18-.48-2.21c-1.06-4.84-5.24-7.2-12.78-7.21l-9.4.14h-.92V20H72.49V3.75H6.6V22.22h7.25V56.72L43.23,79.58l17.1-13.41V53.45H75.91v6.07c0,9.68,3.46,12.79,14.26,12.79,5.43,0,10.74-.82,12.83-6.74l.55-1.55.51,1.56c2.2,6.73,10,6.73,13.78,6.73s11.68,0,13.82-6.84l.52-1.65.54,1.65c2,6,7.57,6.85,13.31,6.85,5.47,0,10.84-.74,13-6.12l1.07-2.63v7.57H189V65.22l1,2c1.8,3.36,5.4,5.14,10.42,5.14h3.38c6.09,0,9.75-1.53,11.54-4.82l1-1.93v6.75H239.8V59.64h-9Z"/><path d="M231.92,56.66h7.74V41.95h-7.74v-.66h8.34V26.82H215.35v2.06c-2.87-2.9-7.56-3.31-11.47-3.31H200.5c-5.87,0-9.78,2.19-11.63,6.5-2-4.23-6.61-6.07-14.91-6.07h-7.89a7,7,0,0,0-4.83,1.91V26.82H130.81v2.9c-3.58-4.15-10-4.15-13-4.15-3.25,0-11.49,0-14.42,6.45-1.66-4.13-5.93-6.27-12.68-6.42l-10.08.14V19.06H73.41V2.83H5.68v20.3h7.25v34l30.3,23.57,17.84-14,.18-.14V54.37H74.8v.79h0v4.38c0,10.26,4,13.9,15.37,13.9,5.18,0,10.73-.77,13.35-6.19,3,6.19,10.84,6.19,14.32,6.19s11.41,0,14.35-6.27c2.58,5.49,8.39,6.27,13.83,6.27,4.89,0,10.12-.62,13-4.81v3.63h31.13v-3c2.19,2.72,5.73,4.14,10.35,4.14h3.38c5.55,0,9.25-1.24,11.47-3.87v3.87h25.57V58.53h-9Zm7.88,3V72.31H216.46V65.56l-1,1.93c-1.79,3.29-5.45,4.82-11.54,4.82H200.5c-5,0-8.62-1.78-10.42-5.14l-1-2v5.91h-28.9V63.56l-1.07,2.63c-2.2,5.38-7.56,6.12-13,6.12-5.73,0-11.32-.83-13.31-6.85l-.54-1.65-.52,1.65c-2.14,6.84-10,6.84-13.82,6.84s-11.58,0-13.78-6.73L103.55,64,103,65.57c-2.09,5.92-7.4,6.74-12.83,6.74-10.79,0-14.26-3.11-14.26-12.79V53.46H60.34V66.17L43.23,79.58,13.85,56.72V22.22H6.6V3.75H72.49V20h7.25v6.86h.92l9.4-.14c7.54,0,11.72,2.37,12.78,7.21l.48,2.21.6-2.18c2-7.24,10.36-7.24,13.93-7.24,3.3,0,10.17,0,13,5.06l1,1.84V27.93h28.19v3.32l1-1.52a5.92,5.92,0,0,1,4.93-2.62H174c8.6,0,12.9,2,14.4,6.69l.55,1.71.52-1.72c1.42-4.72,5.14-7.12,11.08-7.12h3.38c4.14,0,9.19.46,11.56,4.07l1,1.56V27.93h22.69V40.17h-8.34v2.89h7.74V55.54h-7.74v4.1Z"/><polygon points="9.76 6.91 69.33 6.91 69.33 19.06 29.16 19.06 29.16 50.13 41.41 59.83 41.41 74.16 17.01 55.18 17.01 19.06 9.76 19.06 9.76 6.91"/><polygon points="76.59 35.4 76.59 23.13 57.18 23.13 45.03 23.13 35.25 23.13 35.25 35.4 45.03 35.4 45.03 38.03 45.03 50.29 45.03 74.16 57.18 64.63 57.18 50.29 69.33 50.29 69.33 38.03 57.18 38.03 57.18 35.4 76.59 35.4"/><path class="cls-2" d="M101.41,55.71c-.3-7.29-2.1-8.1-10.61-10.34-2.65-.66-3.3-1.09-3.3-3.61V39.13c0-1.86.16-2.85,2.54-2.85s2.54.27,2.54,3.78V42h8V37.22c0-5.53-2.6-7.71-10.39-7.71-8.55,0-11.37.93-11.37,10.18v2.41c0,7.06,1.35,8.75,8.34,10.45,4.71,1.15,5.31,1.31,5.31,4v4.27c0,1.7-.65,2.35-2.65,2.35-1.69,0-2.3-.45-2.52-1.47a12.23,12.23,0,0,1-.13-2.36V56.53H78.83v3.28a21,21,0,0,0,.46,5,6.15,6.15,0,0,0,1.45,2.82C82.37,69.36,85.28,70,90.36,70c5.88,0,9.28-1,10.54-5.82a21.65,21.65,0,0,0,.56-5.4C101.46,57.64,101.45,56.62,101.41,55.71Z"/><path class="cls-2" d="M118,29.5c-7.53,0-11.64,1.7-11.64,8.15V61.84c0,.45,0,.87.06,1.27C107,68.52,111,70,118,70c7.53,0,11.64-1.7,11.64-8.15V37.65C129.65,31.2,125.54,29.5,118,29.5Zm2.33,31.85c0,1.48-.65,1.86-2.33,1.86s-2.33-.38-2.33-1.86V38.15c0-1.48.65-1.86,2.33-1.86s2.33.38,2.33,1.86v23.2Z"/><path class="cls-2" d="M148.81,30.76v29.6c0,1.53-.6,2.52-2.38,2.52s-2.38-1-2.38-2.52V30.76h-9V60.09c0,8.81,4.17,9.9,11.37,9.9s11.37-1.09,11.37-9.9V30.76Z"/><path class="cls-2" d="M186.52,44.17V39.4a18.91,18.91,0,0,0-.24-3.21c-.83-4.83-4-6.26-12.1-6.26h-7.84a3.28,3.28,0,0,0-3.26,3.3V68.81h9V55.88h1.52c3,0,4,.71,4,2.35V68.81h9v-10c0-4.87-2.11-5.58-6.12-6.46v-.11C184.19,51.55,186.52,50.18,186.52,44.17Zm-9,1.48c0,2.57-.54,3.45-3.74,3.45h-1.73V36.72h2.71c1.95,0,2.76.93,2.76,3v6Z"/><path class="cls-2" d="M203.9,29.5h-3.36a12.16,12.16,0,0,0-4.56.75,6.46,6.46,0,0,0-2.26,1.49c-1.57,1.61-2.22,4.08-2.22,7.39V61.51c0,5.14,2.38,8.48,9,8.48h3.36c7.58,0,10.23-2.19,10.23-9.19V54.95h-8.66v6.24c0,1.2-.81,1.7-2.33,1.7s-2.33-.49-2.33-1.7V38.31c0-1.2.81-1.7,2.38-1.7s2.27.49,2.27,1.7v5.2h8.66V36.29C214.13,31.69,211.75,29.5,203.9,29.5Z"/><polygon class="cls-2" points="228.02 62.59 228.02 53.16 235.71 53.16 235.71 45.95 228.02 45.95 228.02 37.73 236.31 37.73 236.31 30.76 219.03 30.76 219.03 69.99 236.96 69.99 236.96 62.59 228.02 62.59"/><path class="cls-3" d="M80.66,26.84h-.92V20H72.49V3.75H6.6V22.22h7.25V56.72L43.23,79.58l17.1-13.41V53.45H76"/></svg>